# xmcd CD database file
#
# Track frame offsets:
#	151
#	17631
#	29742
#	61222
#	88545
#	109680
#	120436
#
# Disc length: 1844 seconds
#
# Revision: 0
# Processed by: cddbd v1.5.1PL0 Copyright (c) Steve Scherf et al.
# Submitted via: CDex 1.51
#
DISCID=50073207
DTITLE=Don Cherry and Ed Blackwell - Mu (second part)
DYEAR=1969
DGENRE=Jazz
TTITLE0=The Mysticism of my Sound
TTITLE1=Medley-- Dollar Brand--Spontaneous Composing--Excerpt, Man on the Moon
TTITLE2=Bamboo Night
TTITLE3=Teo- Teo Can
TTITLE4=Smiling Faces, Going Places
TTITLE5=Psycho Drama
TTITLE6=Medley-- Albert Heath-- Dollar Brand-- Baby Rest, Time for...
EXTD=YEAR: 1969
EXTT0=
EXTT1=
EXTT2=
EXTT3=
EXTT4=
EXTT5=
EXTT6=
PLAYORDER=
